<?xml version="1.0" standalone="no"?><!-- Generator: Gravit.io --><svg xmlns="http://www.w3.org/2000/svg" xmlns:xlink="http://www.w3.org/1999/xlink" style="isolation:isolate" viewBox="0 0 9000 9000" width="9000" height="9000"><defs><clipPath id="_clipPath_IrInkuWSa91H0cznJu61XWfZ5v4z5p8S"><rect width="9000" height="9000"/></clipPath></defs><g clip-path="url(#_clipPath_IrInkuWSa91H0cznJu61XWfZ5v4z5p8S)"><g id="Group"><path d="M 2328.801 0 L 6671.199 0 C 7956.499 0 9000 1043.501 9000 2328.801 L 9000 6671.199 C 9000 7956.499 7956.499 9000 6671.199 9000 L 2328.801 9000 C 1043.501 9000 0 7956.499 0 6671.199 L 0 2328.801 C 0 1043.501 1043.501 0 2328.801 0 Z" style="stroke:none;fill:#ECECEC;stroke-miterlimit:10;"/><path d=" M 1931.33 4500 C 1931.33 3082.313 3082.313 1931.33 4500 1931.33 C 5917.687 1931.33 7068.67 3082.313 7068.67 4500 C 7068.67 5917.687 5917.687 7068.67 4500 7068.67 C 3082.313 7068.67 1931.33 5917.687 1931.33 4500 Z " fill="rgb(215,215,215)"/><path d=" M 2613.148 4500 C 2613.148 3458.618 3458.618 2613.148 4500 2613.148 C 5541.382 2613.148 6386.852 3458.618 6386.852 4500 C 6386.852 5541.382 5541.382 6386.852 4500 6386.852 C 3458.618 6386.852 2613.148 5541.382 2613.148 4500 Z " fill="rgb(132,104,185)"/><path d=" M 3746.781 4500 C 3746.781 4084.287 4084.287 3746.781 4500 3746.781 C 4915.713 3746.781 5253.219 4084.287 5253.219 4500 C 5253.219 4915.713 4915.713 5253.219 4500 5253.219 C 4084.287 5253.219 3746.781 4915.713 3746.781 4500 Z " fill="rgb(108,89,142)"/><path d=" M 1236.052 1467.811 C 1236.052 1382.537 1305.284 1313.305 1390.558 1313.305 C 1475.832 1313.305 1545.064 1382.537 1545.064 1467.811 C 1545.064 1553.086 1475.832 1622.318 1390.558 1622.318 C 1305.284 1622.318 1236.052 1553.086 1236.052 1467.811 Z " fill="rgb(108,108,108)"/><path d=" M 2613.148 4191.267 C 2760.66 3282.525 3549.861 2587.983 4500 2587.983 C 5450.139 2587.983 6239.34 3282.525 6386.852 4191.267 C 5831.978 4522.694 5187.371 4712.446 4500 4712.446 C 3812.629 4712.446 3168.022 4522.694 2613.148 4191.267 Z " fill="rgb(255,255,255)" fill-opacity="0.1"/></g></g></svg>